# xmcd CD database file
#
# Track frame offsets:
#	150
#	19974
#	39739
#	58874
#	88778
#
# Disc length: 1504 seconds
#
# Revision: 0
# Processed by: cddbd v1.5.2PL0 Copyright (c) Steve Scherf et al.
# Submitted via: ACXtractor (MTCDDB.DLL V2003.07.15)
#
DISCID=4005de05
DTITLE=M24 Bluez Band - Don't Let Nobody
DYEAR=2016
DGENRE=Blues
TTITLE0=Don't Let Nobody Drag Your Spirit Down
TTITLE1=Oh Lord I Want You To Help Me
TTITLE2=Trouble In My Way
TTITLE3=Twenty-Five To Life
TTITLE4=I Believe
EXTD=ID3G:   0 YEAR: 2016
EXTT0=
EXTT1=
EXTT2=
EXTT3=
EXTT4=
PLAYORDER=
